G04 #@! TF.GenerationSoftware,KiCad,Pcbnew,8.0.5*
G04 #@! TF.CreationDate,2024-10-18T15:07:19+02:00*
G04 #@! TF.ProjectId,kastenwagen-1840-chunky,6b617374-656e-4776-9167-656e2d313834,rev?*
G04 #@! TF.SameCoordinates,Original*
G04 #@! TF.FileFunction,Soldermask,Bot*
G04 #@! TF.FilePolarity,Negative*
%FSLAX46Y46*%
G04 Gerber Fmt 4.6, Leading zero omitted, Abs format (unit mm)*
G04 Created by KiCad (PCBNEW 8.0.5) date 2024-10-18 15:07:19*
%MOMM*%
%LPD*%
G01*
G04 APERTURE LIST*
G04 Aperture macros list*
%AMRoundRect*
0 Rectangle with rounded corners*
0 $1 Rounding radius*
0 $2 $3 $4 $5 $6 $7 $8 $9 X,Y pos of 4 corners*
0 Add a 4 corners polygon primitive as box body*
4,1,4,$2,$3,$4,$5,$6,$7,$8,$9,$2,$3,0*
0 Add four circle primitives for the rounded corners*
1,1,$1+$1,$2,$3*
1,1,$1+$1,$4,$5*
1,1,$1+$1,$6,$7*
1,1,$1+$1,$8,$9*
0 Add four rect primitives between the rounded corners*
20,1,$1+$1,$2,$3,$4,$5,0*
20,1,$1+$1,$4,$5,$6,$7,0*
20,1,$1+$1,$6,$7,$8,$9,0*
20,1,$1+$1,$8,$9,$2,$3,0*%
G04 Aperture macros list end*
%ADD10RoundRect,0.450000X1.300000X0.450000X-1.300000X0.450000X-1.300000X-0.450000X1.300000X-0.450000X0*%
%ADD11C,1.800000*%
%ADD12RoundRect,0.450000X0.450000X0.450000X-0.450000X0.450000X-0.450000X-0.450000X0.450000X-0.450000X0*%
%ADD13RoundRect,0.450000X0.450000X-1.300000X0.450000X1.300000X-0.450000X1.300000X-0.450000X-1.300000X0*%
%ADD14RoundRect,0.450000X-1.300000X-0.450000X1.300000X-0.450000X1.300000X0.450000X-1.300000X0.450000X0*%
%ADD15C,1.750000*%
%ADD16C,3.987800*%
%ADD17C,2.250000*%
%ADD18C,3.048000*%
%ADD19R,2.000000X2.000000*%
%ADD20C,2.000000*%
%ADD21R,0.800000X1.900000*%
%ADD22R,1.300000X0.700000*%
G04 APERTURE END LIST*
D10*
G04 #@! TO.C,U2*
X287800000Y-13840000D03*
D11*
X286500000Y-13840000D03*
D10*
X287800000Y-16380000D03*
D11*
X286500000Y-16380000D03*
D10*
X287800000Y-18920000D03*
D12*
X286500000Y-18920000D03*
D10*
X287800000Y-21460000D03*
D12*
X286500000Y-21460000D03*
D10*
X287800000Y-24000000D03*
D11*
X286500000Y-24000000D03*
D10*
X287800000Y-26540000D03*
D11*
X286500000Y-26540000D03*
D10*
X287800000Y-29080000D03*
D11*
X286500000Y-29080000D03*
D10*
X287800000Y-31620000D03*
D11*
X286500000Y-31620000D03*
D10*
X287800000Y-34160000D03*
D11*
X286500000Y-34160000D03*
D10*
X287800000Y-36700000D03*
D11*
X286500000Y-36700000D03*
D10*
X287800000Y-39240000D03*
D11*
X286500000Y-39240000D03*
D10*
X287800000Y-41780000D03*
D11*
X286500000Y-41780000D03*
X271260000Y-13840000D03*
D10*
X269960000Y-13840000D03*
D12*
X271260000Y-16380000D03*
D10*
X269960000Y-16380000D03*
D11*
X271260000Y-18920000D03*
D10*
X269960000Y-18920000D03*
D11*
X271260000Y-21460000D03*
D10*
X269960000Y-21460000D03*
D11*
X271260000Y-24000000D03*
D10*
X269960000Y-24000000D03*
D11*
X271260000Y-26540000D03*
D10*
X269960000Y-26540000D03*
D11*
X271260000Y-29080000D03*
D10*
X269960000Y-29080000D03*
D11*
X271260000Y-31620000D03*
D10*
X269960000Y-31620000D03*
D11*
X271260000Y-34160000D03*
D10*
X269960000Y-34160000D03*
D11*
X271260000Y-36700000D03*
D10*
X269960000Y-36700000D03*
D11*
X271260000Y-39240000D03*
D10*
X269960000Y-39240000D03*
D11*
X271260000Y-41780000D03*
D10*
X269960000Y-41780000D03*
D11*
X283960000Y-41780000D03*
D13*
X283960000Y-43080000D03*
D11*
X281420000Y-41780000D03*
D13*
X281420000Y-43080000D03*
D11*
X278880000Y-41780000D03*
D13*
X278880000Y-43080000D03*
D11*
X276340000Y-41780000D03*
D13*
X276340000Y-43080000D03*
D11*
X273800000Y-41780000D03*
D13*
X273800000Y-43080000D03*
D14*
X269960000Y-11300000D03*
D10*
X287800000Y-11300000D03*
G04 #@! TD*
D15*
G04 #@! TO.C,MX101*
X39370000Y-25400000D03*
D16*
X44450000Y-25400000D03*
D15*
X49530000Y-25400000D03*
D17*
X40640000Y-22860000D03*
X46990000Y-20320000D03*
G04 #@! TD*
D15*
G04 #@! TO.C,MX110*
X58420000Y-25400000D03*
D16*
X63500000Y-25400000D03*
D15*
X68580000Y-25400000D03*
D17*
X59690000Y-22860000D03*
X66040000Y-20320000D03*
G04 #@! TD*
D15*
G04 #@! TO.C,MX111*
X77470000Y-25400000D03*
D16*
X82550000Y-25400000D03*
D15*
X87630000Y-25400000D03*
D17*
X78740000Y-22860000D03*
X85090000Y-20320000D03*
G04 #@! TD*
D15*
G04 #@! TO.C,MX120*
X96520000Y-25400000D03*
D16*
X101600000Y-25400000D03*
D15*
X106680000Y-25400000D03*
D17*
X97790000Y-22860000D03*
X104140000Y-20320000D03*
G04 #@! TD*
D15*
G04 #@! TO.C,MX121*
X115570000Y-25400000D03*
D16*
X120650000Y-25400000D03*
D15*
X125730000Y-25400000D03*
D17*
X116840000Y-22860000D03*
X123190000Y-20320000D03*
G04 #@! TD*
D15*
G04 #@! TO.C,MX130*
X134620000Y-25400000D03*
D16*
X139700000Y-25400000D03*
D15*
X144780000Y-25400000D03*
D17*
X135890000Y-22860000D03*
X142240000Y-20320000D03*
G04 #@! TD*
D15*
G04 #@! TO.C,MX131*
X153670000Y-25400000D03*
D16*
X158750000Y-25400000D03*
D15*
X163830000Y-25400000D03*
D17*
X154940000Y-22860000D03*
X161290000Y-20320000D03*
G04 #@! TD*
D15*
G04 #@! TO.C,MX140*
X172720000Y-25400000D03*
D16*
X177800000Y-25400000D03*
D15*
X182880000Y-25400000D03*
D17*
X173990000Y-22860000D03*
X180340000Y-20320000D03*
G04 #@! TD*
D15*
G04 #@! TO.C,MX141*
X191770000Y-25400000D03*
D16*
X196850000Y-25400000D03*
D15*
X201930000Y-25400000D03*
D17*
X193040000Y-22860000D03*
X199390000Y-20320000D03*
G04 #@! TD*
D15*
G04 #@! TO.C,MX150*
X210820000Y-25400000D03*
D16*
X215900000Y-25400000D03*
D15*
X220980000Y-25400000D03*
D17*
X212090000Y-22860000D03*
X218440000Y-20320000D03*
G04 #@! TD*
D15*
G04 #@! TO.C,MX151*
X229870000Y-25400000D03*
D16*
X234950000Y-25400000D03*
D15*
X240030000Y-25400000D03*
D17*
X231140000Y-22860000D03*
X237490000Y-20320000D03*
G04 #@! TD*
D15*
G04 #@! TO.C,MX170*
X291782500Y-25400000D03*
D16*
X296862500Y-25400000D03*
D15*
X301942500Y-25400000D03*
D17*
X293052500Y-22860000D03*
X299402500Y-20320000D03*
G04 #@! TD*
D15*
G04 #@! TO.C,MX171*
X310832500Y-25400000D03*
D16*
X315912500Y-25400000D03*
D15*
X320992500Y-25400000D03*
D17*
X312102500Y-22860000D03*
X318452500Y-20320000D03*
G04 #@! TD*
D15*
G04 #@! TO.C,MX180*
X329882500Y-25400000D03*
D16*
X334962500Y-25400000D03*
D15*
X340042500Y-25400000D03*
D17*
X331152500Y-22860000D03*
X337502500Y-20320000D03*
G04 #@! TD*
D15*
G04 #@! TO.C,MX181*
X348932500Y-25400000D03*
D16*
X354012500Y-25400000D03*
D15*
X359092500Y-25400000D03*
D17*
X350202500Y-22860000D03*
X356552500Y-20320000D03*
G04 #@! TD*
D15*
G04 #@! TO.C,MX202*
X22701250Y-44450000D03*
D16*
X27781250Y-44450000D03*
D15*
X32861250Y-44450000D03*
D17*
X23971250Y-41910000D03*
X30321250Y-39370000D03*
G04 #@! TD*
D15*
G04 #@! TO.C,MX203*
X44132500Y-44450000D03*
D16*
X49212500Y-44450000D03*
D15*
X54292500Y-44450000D03*
D17*
X45402500Y-41910000D03*
X51752500Y-39370000D03*
G04 #@! TD*
D15*
G04 #@! TO.C,MX212*
X63182500Y-44450000D03*
D16*
X68262500Y-44450000D03*
D15*
X73342500Y-44450000D03*
D17*
X64452500Y-41910000D03*
X70802500Y-39370000D03*
G04 #@! TD*
D15*
G04 #@! TO.C,MX213*
X82232500Y-44450000D03*
D16*
X87312500Y-44450000D03*
D15*
X92392500Y-44450000D03*
D17*
X83502500Y-41910000D03*
X89852500Y-39370000D03*
G04 #@! TD*
D15*
G04 #@! TO.C,MX222*
X101282500Y-44450000D03*
D16*
X106362500Y-44450000D03*
D15*
X111442500Y-44450000D03*
D17*
X102552500Y-41910000D03*
X108902500Y-39370000D03*
G04 #@! TD*
D15*
G04 #@! TO.C,MX223*
X120332500Y-44450000D03*
D16*
X125412500Y-44450000D03*
D15*
X130492500Y-44450000D03*
D17*
X121602500Y-41910000D03*
X127952500Y-39370000D03*
G04 #@! TD*
D15*
G04 #@! TO.C,MX232*
X139382500Y-44450000D03*
D16*
X144462500Y-44450000D03*
D15*
X149542500Y-44450000D03*
D17*
X140652500Y-41910000D03*
X147002500Y-39370000D03*
G04 #@! TD*
D15*
G04 #@! TO.C,MX233*
X158432500Y-44450000D03*
D16*
X163512500Y-44450000D03*
D15*
X168592500Y-44450000D03*
D17*
X159702500Y-41910000D03*
X166052500Y-39370000D03*
G04 #@! TD*
D15*
G04 #@! TO.C,MX242*
X177482500Y-44450000D03*
D16*
X182562500Y-44450000D03*
D15*
X187642500Y-44450000D03*
D17*
X178752500Y-41910000D03*
X185102500Y-39370000D03*
G04 #@! TD*
D15*
G04 #@! TO.C,MX243*
X196532500Y-44450000D03*
D16*
X201612500Y-44450000D03*
D15*
X206692500Y-44450000D03*
D17*
X197802500Y-41910000D03*
X204152500Y-39370000D03*
G04 #@! TD*
D15*
G04 #@! TO.C,MX252*
X215582500Y-44450000D03*
D16*
X220662500Y-44450000D03*
D15*
X225742500Y-44450000D03*
D17*
X216852500Y-41910000D03*
X223202500Y-39370000D03*
G04 #@! TD*
D15*
G04 #@! TO.C,MX253*
X234632500Y-44450000D03*
D16*
X239712500Y-44450000D03*
D15*
X244792500Y-44450000D03*
D17*
X235902500Y-41910000D03*
X242252500Y-39370000D03*
G04 #@! TD*
D15*
G04 #@! TO.C,MX262*
X261143750Y-40005000D03*
D16*
X261143750Y-34925000D03*
D15*
X261143750Y-29845000D03*
D17*
X258603750Y-38735000D03*
X256063750Y-32385000D03*
G04 #@! TD*
D15*
G04 #@! TO.C,MX272*
X291782500Y-44450000D03*
D16*
X296862500Y-44450000D03*
D15*
X301942500Y-44450000D03*
D17*
X293052500Y-41910000D03*
X299402500Y-39370000D03*
G04 #@! TD*
D15*
G04 #@! TO.C,MX273*
X310832500Y-44450000D03*
D16*
X315912500Y-44450000D03*
D15*
X320992500Y-44450000D03*
D17*
X312102500Y-41910000D03*
X318452500Y-39370000D03*
G04 #@! TD*
D15*
G04 #@! TO.C,MX282*
X329882500Y-44450000D03*
D16*
X334962500Y-44450000D03*
D15*
X340042500Y-44450000D03*
D17*
X331152500Y-41910000D03*
X337502500Y-39370000D03*
G04 #@! TD*
D15*
G04 #@! TO.C,MX283*
X348932500Y-44450000D03*
D16*
X354012500Y-44450000D03*
D15*
X359092500Y-44450000D03*
D17*
X350202500Y-41910000D03*
X356552500Y-39370000D03*
G04 #@! TD*
D15*
G04 #@! TO.C,MX304*
X27463750Y-63500000D03*
D16*
X32543750Y-63500000D03*
D15*
X37623750Y-63500000D03*
D17*
X28733750Y-60960000D03*
X35083750Y-58420000D03*
G04 #@! TD*
D15*
G04 #@! TO.C,MX305*
X53657500Y-63500000D03*
D16*
X58737500Y-63500000D03*
D15*
X63817500Y-63500000D03*
D17*
X54927500Y-60960000D03*
X61277500Y-58420000D03*
G04 #@! TD*
D15*
G04 #@! TO.C,MX314*
X72707500Y-63500000D03*
D16*
X77787500Y-63500000D03*
D15*
X82867500Y-63500000D03*
D17*
X73977500Y-60960000D03*
X80327500Y-58420000D03*
G04 #@! TD*
D15*
G04 #@! TO.C,MX315*
X91757500Y-63500000D03*
D16*
X96837500Y-63500000D03*
D15*
X101917500Y-63500000D03*
D17*
X93027500Y-60960000D03*
X99377500Y-58420000D03*
G04 #@! TD*
D15*
G04 #@! TO.C,MX324*
X110807500Y-63500000D03*
D16*
X115887500Y-63500000D03*
D15*
X120967500Y-63500000D03*
D17*
X112077500Y-60960000D03*
X118427500Y-58420000D03*
G04 #@! TD*
D15*
G04 #@! TO.C,MX325*
X129857500Y-63500000D03*
D16*
X134937500Y-63500000D03*
D15*
X140017500Y-63500000D03*
D17*
X131127500Y-60960000D03*
X137477500Y-58420000D03*
G04 #@! TD*
D15*
G04 #@! TO.C,MX334*
X148907500Y-63500000D03*
D16*
X153987500Y-63500000D03*
D15*
X159067500Y-63500000D03*
D17*
X150177500Y-60960000D03*
X156527500Y-58420000D03*
G04 #@! TD*
D15*
G04 #@! TO.C,MX335*
X167957500Y-63500000D03*
D16*
X173037500Y-63500000D03*
D15*
X178117500Y-63500000D03*
D17*
X169227500Y-60960000D03*
X175577500Y-58420000D03*
G04 #@! TD*
D15*
G04 #@! TO.C,MX344*
X187007500Y-63500000D03*
D16*
X192087500Y-63500000D03*
D15*
X197167500Y-63500000D03*
D17*
X188277500Y-60960000D03*
X194627500Y-58420000D03*
G04 #@! TD*
D15*
G04 #@! TO.C,MX345*
X206057500Y-63500000D03*
D16*
X211137500Y-63500000D03*
D15*
X216217500Y-63500000D03*
D17*
X207327500Y-60960000D03*
X213677500Y-58420000D03*
G04 #@! TD*
D15*
G04 #@! TO.C,MX354*
X225107500Y-63500000D03*
D16*
X230187500Y-63500000D03*
D15*
X235267500Y-63500000D03*
D17*
X226377500Y-60960000D03*
X232727500Y-58420000D03*
G04 #@! TD*
D15*
G04 #@! TO.C,MX355*
X246538750Y-63500000D03*
D16*
X251618750Y-63500000D03*
D15*
X256698750Y-63500000D03*
D17*
X247808750Y-60960000D03*
X254158750Y-58420000D03*
G04 #@! TD*
D15*
G04 #@! TO.C,MX364*
X270351250Y-65881250D03*
D16*
X275431250Y-65881250D03*
D15*
X280511250Y-65881250D03*
D17*
X271621250Y-63341250D03*
X277971250Y-60801250D03*
G04 #@! TD*
D15*
G04 #@! TO.C,MX374*
X291782500Y-63500000D03*
D16*
X296862500Y-63500000D03*
D15*
X301942500Y-63500000D03*
D17*
X293052500Y-60960000D03*
X299402500Y-58420000D03*
G04 #@! TD*
D15*
G04 #@! TO.C,MX375*
X310832500Y-63500000D03*
D16*
X315912500Y-63500000D03*
D15*
X320992500Y-63500000D03*
D17*
X312102500Y-60960000D03*
X318452500Y-58420000D03*
G04 #@! TD*
D15*
G04 #@! TO.C,MX384*
X329882500Y-63500000D03*
D16*
X334962500Y-63500000D03*
D15*
X340042500Y-63500000D03*
D17*
X331152500Y-60960000D03*
X337502500Y-58420000D03*
G04 #@! TD*
D15*
G04 #@! TO.C,MX385*
X348932500Y-63500000D03*
D16*
X354012500Y-63500000D03*
D15*
X359092500Y-63500000D03*
D17*
X350202500Y-60960000D03*
X356552500Y-58420000D03*
G04 #@! TD*
D15*
G04 #@! TO.C,MX406*
X22701250Y-82550000D03*
D16*
X27781250Y-82550000D03*
D15*
X32861250Y-82550000D03*
D17*
X23971250Y-80010000D03*
X30321250Y-77470000D03*
G04 #@! TD*
D15*
G04 #@! TO.C,MX416*
X67945000Y-82550000D03*
D16*
X73025000Y-82550000D03*
D15*
X78105000Y-82550000D03*
D17*
X69215000Y-80010000D03*
X75565000Y-77470000D03*
G04 #@! TD*
D16*
G04 #@! TO.C,MX417*
X96837500Y-74295000D03*
D18*
X96837500Y-89535000D03*
D15*
X103663750Y-82550000D03*
D16*
X108743750Y-82550000D03*
D15*
X113823750Y-82550000D03*
D16*
X120650000Y-74295000D03*
D18*
X120650000Y-89535000D03*
D17*
X104933750Y-80010000D03*
X111283750Y-77470000D03*
G04 #@! TD*
D16*
G04 #@! TO.C,MX417.700*
X73025000Y-74295000D03*
D18*
X73025000Y-89535000D03*
D15*
X125095000Y-82550000D03*
D16*
X130175000Y-82550000D03*
D15*
X135255000Y-82550000D03*
D16*
X187325000Y-74295000D03*
D18*
X187325000Y-89535000D03*
D17*
X126365000Y-80010000D03*
X132715000Y-77470000D03*
G04 #@! TD*
D16*
G04 #@! TO.C,MX437*
X144462500Y-74295000D03*
D18*
X144462500Y-89535000D03*
D15*
X151288750Y-82550000D03*
D16*
X156368750Y-82550000D03*
D15*
X161448750Y-82550000D03*
D16*
X168275000Y-74295000D03*
D18*
X168275000Y-89535000D03*
D17*
X152558750Y-80010000D03*
X158908750Y-77470000D03*
G04 #@! TD*
D15*
G04 #@! TO.C,MX446*
X182245000Y-82550000D03*
D16*
X187325000Y-82550000D03*
D15*
X192405000Y-82550000D03*
D17*
X183515000Y-80010000D03*
X189865000Y-77470000D03*
G04 #@! TD*
D15*
G04 #@! TO.C,MX447*
X203676250Y-82550000D03*
D16*
X208756250Y-82550000D03*
D15*
X213836250Y-82550000D03*
D17*
X204946250Y-80010000D03*
X211296250Y-77470000D03*
G04 #@! TD*
D15*
G04 #@! TO.C,MX456*
X227488750Y-82550000D03*
D16*
X232568750Y-82550000D03*
D15*
X237648750Y-82550000D03*
D17*
X228758750Y-80010000D03*
X235108750Y-77470000D03*
G04 #@! TD*
D15*
G04 #@! TO.C,MX457*
X251301250Y-84931250D03*
D16*
X256381250Y-84931250D03*
D15*
X261461250Y-84931250D03*
D17*
X252571250Y-82391250D03*
X258921250Y-79851250D03*
G04 #@! TD*
D15*
G04 #@! TO.C,MX467*
X270351250Y-84931250D03*
D16*
X275431250Y-84931250D03*
D15*
X280511250Y-84931250D03*
D17*
X271621250Y-82391250D03*
X277971250Y-79851250D03*
G04 #@! TD*
D15*
G04 #@! TO.C,MX476*
X289401250Y-84931250D03*
D16*
X294481250Y-84931250D03*
D15*
X299561250Y-84931250D03*
D17*
X290671250Y-82391250D03*
X297021250Y-79851250D03*
G04 #@! TD*
D15*
G04 #@! TO.C,MX477*
X310832500Y-82550000D03*
D16*
X315912500Y-82550000D03*
D15*
X320992500Y-82550000D03*
D17*
X312102500Y-80010000D03*
X318452500Y-77470000D03*
G04 #@! TD*
D16*
G04 #@! TO.C,MX477.200*
X313416950Y-74269600D03*
D18*
X313416950Y-89509600D03*
D15*
X320243200Y-82524600D03*
D16*
X325323200Y-82524600D03*
D15*
X330403200Y-82524600D03*
D16*
X337229450Y-74269600D03*
D18*
X337229450Y-89509600D03*
D17*
X321513200Y-79984600D03*
X327863200Y-77444600D03*
G04 #@! TD*
D15*
G04 #@! TO.C,MX486*
X329882500Y-82550000D03*
D16*
X334962500Y-82550000D03*
D15*
X340042500Y-82550000D03*
D17*
X331152500Y-80010000D03*
X337502500Y-77470000D03*
G04 #@! TD*
D15*
G04 #@! TO.C,MX487*
X348932500Y-82550000D03*
D16*
X354012500Y-82550000D03*
D15*
X359092500Y-82550000D03*
D17*
X350202500Y-80010000D03*
X356552500Y-77470000D03*
G04 #@! TD*
D18*
G04 #@! TO.C,MX487.200*
X360997500Y-61118750D03*
D16*
X345757500Y-61118750D03*
D15*
X354012500Y-67945000D03*
D16*
X354012500Y-73025000D03*
D15*
X354012500Y-78105000D03*
D18*
X360997500Y-84931250D03*
D16*
X345757500Y-84931250D03*
D17*
X356552500Y-69215000D03*
X359092500Y-75565000D03*
G04 #@! TD*
D19*
G04 #@! TO.C,RSW100*
X32900000Y-27856250D03*
D20*
X32900000Y-22856250D03*
X32900000Y-25356250D03*
X18400000Y-22856250D03*
X18400000Y-27856250D03*
G04 #@! TD*
D19*
G04 #@! TO.C,RSW181*
X361512500Y-27900000D03*
D20*
X361512500Y-22900000D03*
X361512500Y-25400000D03*
X347012500Y-22900000D03*
X347012500Y-27900000D03*
G04 #@! TD*
D15*
G04 #@! TO.C,MX100*
X20320000Y-25400000D03*
D16*
X25400000Y-25400000D03*
D15*
X30480000Y-25400000D03*
D17*
X21590000Y-22860000D03*
X27940000Y-20320000D03*
G04 #@! TD*
D15*
G04 #@! TO.C,MX407*
X46513750Y-82550000D03*
D16*
X51593750Y-82550000D03*
D15*
X56673750Y-82550000D03*
D17*
X47783750Y-80010000D03*
X54133750Y-77470000D03*
G04 #@! TD*
D21*
G04 #@! TO.C,D100*
X35550000Y-20300000D03*
X37450000Y-20300000D03*
X36500000Y-23300000D03*
G04 #@! TD*
G04 #@! TO.C,D101*
X52550000Y-20300000D03*
X54450000Y-20300000D03*
X53500000Y-23300000D03*
G04 #@! TD*
G04 #@! TO.C,D120*
X109850000Y-20300000D03*
X111750000Y-20300000D03*
X110800000Y-23300000D03*
G04 #@! TD*
G04 #@! TO.C,D121*
X129350000Y-20300000D03*
X131250000Y-20300000D03*
X130300000Y-23300000D03*
G04 #@! TD*
G04 #@! TO.C,D140*
X186050000Y-20300000D03*
X187950000Y-20300000D03*
X187000000Y-23300000D03*
G04 #@! TD*
G04 #@! TO.C,D141*
X205350000Y-20300000D03*
X207250000Y-20300000D03*
X206300000Y-23300000D03*
G04 #@! TD*
G04 #@! TO.C,D170*
X305450000Y-20300000D03*
X307350000Y-20300000D03*
X306400000Y-23300000D03*
G04 #@! TD*
G04 #@! TO.C,D171*
X324450000Y-20300000D03*
X326350000Y-20300000D03*
X325400000Y-23300000D03*
G04 #@! TD*
G04 #@! TO.C,D202*
X38750000Y-39300000D03*
X40650000Y-39300000D03*
X39700000Y-42300000D03*
G04 #@! TD*
G04 #@! TO.C,D203*
X57850000Y-39300000D03*
X59750000Y-39300000D03*
X58800000Y-42300000D03*
G04 #@! TD*
G04 #@! TO.C,D222*
X114950000Y-39300000D03*
X116850000Y-39300000D03*
X115900000Y-42300000D03*
G04 #@! TD*
G04 #@! TO.C,D223*
X133950000Y-39300000D03*
X135850000Y-39300000D03*
X134900000Y-42300000D03*
G04 #@! TD*
G04 #@! TO.C,D242*
X191150000Y-39300000D03*
X193050000Y-39300000D03*
X192100000Y-42300000D03*
G04 #@! TD*
G04 #@! TO.C,D243*
X210150000Y-39300000D03*
X212050000Y-39300000D03*
X211100000Y-42300000D03*
G04 #@! TD*
G04 #@! TO.C,D262*
X250550000Y-39300000D03*
X252450000Y-39300000D03*
X251500000Y-42300000D03*
G04 #@! TD*
G04 #@! TO.C,D272*
X305350000Y-39300000D03*
X307250000Y-39300000D03*
X306300000Y-42300000D03*
G04 #@! TD*
G04 #@! TO.C,D273*
X324450000Y-39300000D03*
X326350000Y-39300000D03*
X325400000Y-42300000D03*
G04 #@! TD*
G04 #@! TO.C,D304*
X46244381Y-58300000D03*
X48144381Y-58300000D03*
X47194381Y-61300000D03*
G04 #@! TD*
G04 #@! TO.C,D305*
X67250000Y-58300000D03*
X69150000Y-58300000D03*
X68200000Y-61300000D03*
G04 #@! TD*
G04 #@! TO.C,D324*
X124450000Y-58300000D03*
X126350000Y-58300000D03*
X125400000Y-61300000D03*
G04 #@! TD*
G04 #@! TO.C,D325*
X143450000Y-58300000D03*
X145350000Y-58300000D03*
X144400000Y-61300000D03*
G04 #@! TD*
G04 #@! TO.C,D344*
X200650000Y-58300000D03*
X202550000Y-58300000D03*
X201600000Y-61300000D03*
G04 #@! TD*
G04 #@! TO.C,D345*
X219650000Y-58300000D03*
X221550000Y-58300000D03*
X220600000Y-61300000D03*
G04 #@! TD*
G04 #@! TO.C,D364*
X283950000Y-60800000D03*
X285850000Y-60800000D03*
X284900000Y-63800000D03*
G04 #@! TD*
G04 #@! TO.C,D374*
X305450000Y-58300000D03*
X307350000Y-58300000D03*
X306400000Y-61300000D03*
G04 #@! TD*
G04 #@! TO.C,D375*
X324450000Y-58300000D03*
X326350000Y-58300000D03*
X325400000Y-61300000D03*
G04 #@! TD*
G04 #@! TO.C,D406*
X38750000Y-77400000D03*
X40650000Y-77400000D03*
X39700000Y-80400000D03*
G04 #@! TD*
G04 #@! TO.C,D407*
X60750000Y-77400000D03*
X62650000Y-77400000D03*
X61700000Y-80400000D03*
G04 #@! TD*
G04 #@! TO.C,D437*
X176250000Y-77400000D03*
X178150000Y-77400000D03*
X177200000Y-80400000D03*
G04 #@! TD*
G04 #@! TO.C,D446*
X195850000Y-77400000D03*
X197750000Y-77400000D03*
X196800000Y-80400000D03*
G04 #@! TD*
G04 #@! TO.C,D457*
X264950000Y-79800000D03*
X266850000Y-79800000D03*
X265900000Y-82800000D03*
G04 #@! TD*
G04 #@! TO.C,D477*
X343449437Y-75600000D03*
X345349437Y-75600000D03*
X344399437Y-78600000D03*
G04 #@! TD*
D22*
G04 #@! TO.C,R1*
X292400000Y-18950000D03*
X292400000Y-17050000D03*
G04 #@! TD*
G04 #@! TO.C,R2*
X294600000Y-19950000D03*
X294600000Y-18050000D03*
G04 #@! TD*
G04 #@! TO.C,R3*
X296800000Y-20950000D03*
X296800000Y-19050000D03*
G04 #@! TD*
D21*
G04 #@! TO.C,D476*
X303350000Y-79800000D03*
X305250000Y-79800000D03*
X304300000Y-82800000D03*
G04 #@! TD*
M02*
