G04 #@! TF.GenerationSoftware,KiCad,Pcbnew,8.0.5*
G04 #@! TF.CreationDate,2024-10-18T15:07:18+02:00*
G04 #@! TF.ProjectId,kastenwagen-1840-chunky,6b617374-656e-4776-9167-656e2d313834,rev?*
G04 #@! TF.SameCoordinates,Original*
G04 #@! TF.FileFunction,Legend,Top*
G04 #@! TF.FilePolarity,Positive*
%FSLAX46Y46*%
G04 Gerber Fmt 4.6, Leading zero omitted, Abs format (unit mm)*
G04 Created by KiCad (PCBNEW 8.0.5) date 2024-10-18 15:07:18*
%MOMM*%
%LPD*%
G01*
G04 APERTURE LIST*
G04 Aperture macros list*
%AMRoundRect*
0 Rectangle with rounded corners*
0 $1 Rounding radius*
0 $2 $3 $4 $5 $6 $7 $8 $9 X,Y pos of 4 corners*
0 Add a 4 corners polygon primitive as box body*
4,1,4,$2,$3,$4,$5,$6,$7,$8,$9,$2,$3,0*
0 Add four circle primitives for the rounded corners*
1,1,$1+$1,$2,$3*
1,1,$1+$1,$4,$5*
1,1,$1+$1,$6,$7*
1,1,$1+$1,$8,$9*
0 Add four rect primitives between the rounded corners*
20,1,$1+$1,$2,$3,$4,$5,0*
20,1,$1+$1,$4,$5,$6,$7,0*
20,1,$1+$1,$6,$7,$8,$9,0*
20,1,$1+$1,$8,$9,$2,$3,0*%
G04 Aperture macros list end*
%ADD10C,0.150000*%
%ADD11C,0.120000*%
%ADD12C,1.800000*%
%ADD13RoundRect,0.450000X0.450000X0.450000X-0.450000X0.450000X-0.450000X-0.450000X0.450000X-0.450000X0*%
%ADD14RoundRect,0.250001X0.462499X0.624999X-0.462499X0.624999X-0.462499X-0.624999X0.462499X-0.624999X0*%
%ADD15C,1.750000*%
%ADD16C,3.987800*%
%ADD17C,3.048000*%
%ADD18R,2.000000X2.000000*%
%ADD19C,2.000000*%
G04 APERTURE END LIST*
D10*
X280619048Y-36988152D02*
X281380953Y-37273866D01*
X281380953Y-37273866D02*
X280619048Y-37559580D01*
X280669048Y-18058152D02*
X281430953Y-18343866D01*
X281430953Y-18343866D02*
X280669048Y-18629580D01*
X229730529Y-88538625D02*
X229730529Y-87538625D01*
X230301957Y-88538625D02*
X229873386Y-87967196D01*
X230301957Y-87538625D02*
X229730529Y-88110053D01*
X231159100Y-88538625D02*
X231159100Y-88014815D01*
X231159100Y-88014815D02*
X231111481Y-87919577D01*
X231111481Y-87919577D02*
X231016243Y-87871958D01*
X231016243Y-87871958D02*
X230825767Y-87871958D01*
X230825767Y-87871958D02*
X230730529Y-87919577D01*
X231159100Y-88491006D02*
X231063862Y-88538625D01*
X231063862Y-88538625D02*
X230825767Y-88538625D01*
X230825767Y-88538625D02*
X230730529Y-88491006D01*
X230730529Y-88491006D02*
X230682910Y-88395767D01*
X230682910Y-88395767D02*
X230682910Y-88300529D01*
X230682910Y-88300529D02*
X230730529Y-88205291D01*
X230730529Y-88205291D02*
X230825767Y-88157672D01*
X230825767Y-88157672D02*
X231063862Y-88157672D01*
X231063862Y-88157672D02*
X231159100Y-88110053D01*
X231587672Y-88491006D02*
X231682910Y-88538625D01*
X231682910Y-88538625D02*
X231873386Y-88538625D01*
X231873386Y-88538625D02*
X231968624Y-88491006D01*
X231968624Y-88491006D02*
X232016243Y-88395767D01*
X232016243Y-88395767D02*
X232016243Y-88348148D01*
X232016243Y-88348148D02*
X231968624Y-88252910D01*
X231968624Y-88252910D02*
X231873386Y-88205291D01*
X231873386Y-88205291D02*
X231730529Y-88205291D01*
X231730529Y-88205291D02*
X231635291Y-88157672D01*
X231635291Y-88157672D02*
X231587672Y-88062434D01*
X231587672Y-88062434D02*
X231587672Y-88014815D01*
X231587672Y-88014815D02*
X231635291Y-87919577D01*
X231635291Y-87919577D02*
X231730529Y-87871958D01*
X231730529Y-87871958D02*
X231873386Y-87871958D01*
X231873386Y-87871958D02*
X231968624Y-87919577D01*
X232301958Y-87871958D02*
X232682910Y-87871958D01*
X232444815Y-87538625D02*
X232444815Y-88395767D01*
X232444815Y-88395767D02*
X232492434Y-88491006D01*
X232492434Y-88491006D02*
X232587672Y-88538625D01*
X232587672Y-88538625D02*
X232682910Y-88538625D01*
X233397196Y-88491006D02*
X233301958Y-88538625D01*
X233301958Y-88538625D02*
X233111482Y-88538625D01*
X233111482Y-88538625D02*
X233016244Y-88491006D01*
X233016244Y-88491006D02*
X232968625Y-88395767D01*
X232968625Y-88395767D02*
X232968625Y-88014815D01*
X232968625Y-88014815D02*
X233016244Y-87919577D01*
X233016244Y-87919577D02*
X233111482Y-87871958D01*
X233111482Y-87871958D02*
X233301958Y-87871958D01*
X233301958Y-87871958D02*
X233397196Y-87919577D01*
X233397196Y-87919577D02*
X233444815Y-88014815D01*
X233444815Y-88014815D02*
X233444815Y-88110053D01*
X233444815Y-88110053D02*
X232968625Y-88205291D01*
X233873387Y-87871958D02*
X233873387Y-88538625D01*
X233873387Y-87967196D02*
X233921006Y-87919577D01*
X233921006Y-87919577D02*
X234016244Y-87871958D01*
X234016244Y-87871958D02*
X234159101Y-87871958D01*
X234159101Y-87871958D02*
X234254339Y-87919577D01*
X234254339Y-87919577D02*
X234301958Y-88014815D01*
X234301958Y-88014815D02*
X234301958Y-88538625D01*
X234682911Y-87871958D02*
X234873387Y-88538625D01*
X234873387Y-88538625D02*
X235063863Y-88062434D01*
X235063863Y-88062434D02*
X235254339Y-88538625D01*
X235254339Y-88538625D02*
X235444815Y-87871958D01*
X236254339Y-88538625D02*
X236254339Y-88014815D01*
X236254339Y-88014815D02*
X236206720Y-87919577D01*
X236206720Y-87919577D02*
X236111482Y-87871958D01*
X236111482Y-87871958D02*
X235921006Y-87871958D01*
X235921006Y-87871958D02*
X235825768Y-87919577D01*
X236254339Y-88491006D02*
X236159101Y-88538625D01*
X236159101Y-88538625D02*
X235921006Y-88538625D01*
X235921006Y-88538625D02*
X235825768Y-88491006D01*
X235825768Y-88491006D02*
X235778149Y-88395767D01*
X235778149Y-88395767D02*
X235778149Y-88300529D01*
X235778149Y-88300529D02*
X235825768Y-88205291D01*
X235825768Y-88205291D02*
X235921006Y-88157672D01*
X235921006Y-88157672D02*
X236159101Y-88157672D01*
X236159101Y-88157672D02*
X236254339Y-88110053D01*
X237159101Y-87871958D02*
X237159101Y-88681482D01*
X237159101Y-88681482D02*
X237111482Y-88776720D01*
X237111482Y-88776720D02*
X237063863Y-88824339D01*
X237063863Y-88824339D02*
X236968625Y-88871958D01*
X236968625Y-88871958D02*
X236825768Y-88871958D01*
X236825768Y-88871958D02*
X236730530Y-88824339D01*
X237159101Y-88491006D02*
X237063863Y-88538625D01*
X237063863Y-88538625D02*
X236873387Y-88538625D01*
X236873387Y-88538625D02*
X236778149Y-88491006D01*
X236778149Y-88491006D02*
X236730530Y-88443386D01*
X236730530Y-88443386D02*
X236682911Y-88348148D01*
X236682911Y-88348148D02*
X236682911Y-88062434D01*
X236682911Y-88062434D02*
X236730530Y-87967196D01*
X236730530Y-87967196D02*
X236778149Y-87919577D01*
X236778149Y-87919577D02*
X236873387Y-87871958D01*
X236873387Y-87871958D02*
X237063863Y-87871958D01*
X237063863Y-87871958D02*
X237159101Y-87919577D01*
X238016244Y-88491006D02*
X237921006Y-88538625D01*
X237921006Y-88538625D02*
X237730530Y-88538625D01*
X237730530Y-88538625D02*
X237635292Y-88491006D01*
X237635292Y-88491006D02*
X237587673Y-88395767D01*
X237587673Y-88395767D02*
X237587673Y-88014815D01*
X237587673Y-88014815D02*
X237635292Y-87919577D01*
X237635292Y-87919577D02*
X237730530Y-87871958D01*
X237730530Y-87871958D02*
X237921006Y-87871958D01*
X237921006Y-87871958D02*
X238016244Y-87919577D01*
X238016244Y-87919577D02*
X238063863Y-88014815D01*
X238063863Y-88014815D02*
X238063863Y-88110053D01*
X238063863Y-88110053D02*
X237587673Y-88205291D01*
X238492435Y-87871958D02*
X238492435Y-88538625D01*
X238492435Y-87967196D02*
X238540054Y-87919577D01*
X238540054Y-87919577D02*
X238635292Y-87871958D01*
X238635292Y-87871958D02*
X238778149Y-87871958D01*
X238778149Y-87871958D02*
X238873387Y-87919577D01*
X238873387Y-87919577D02*
X238921006Y-88014815D01*
X238921006Y-88014815D02*
X238921006Y-88538625D01*
X240159102Y-88538625D02*
X240159102Y-87538625D01*
X240159102Y-87538625D02*
X240540054Y-87538625D01*
X240540054Y-87538625D02*
X240635292Y-87586244D01*
X240635292Y-87586244D02*
X240682911Y-87633863D01*
X240682911Y-87633863D02*
X240730530Y-87729101D01*
X240730530Y-87729101D02*
X240730530Y-87871958D01*
X240730530Y-87871958D02*
X240682911Y-87967196D01*
X240682911Y-87967196D02*
X240635292Y-88014815D01*
X240635292Y-88014815D02*
X240540054Y-88062434D01*
X240540054Y-88062434D02*
X240159102Y-88062434D01*
X241730530Y-88443386D02*
X241682911Y-88491006D01*
X241682911Y-88491006D02*
X241540054Y-88538625D01*
X241540054Y-88538625D02*
X241444816Y-88538625D01*
X241444816Y-88538625D02*
X241301959Y-88491006D01*
X241301959Y-88491006D02*
X241206721Y-88395767D01*
X241206721Y-88395767D02*
X241159102Y-88300529D01*
X241159102Y-88300529D02*
X241111483Y-88110053D01*
X241111483Y-88110053D02*
X241111483Y-87967196D01*
X241111483Y-87967196D02*
X241159102Y-87776720D01*
X241159102Y-87776720D02*
X241206721Y-87681482D01*
X241206721Y-87681482D02*
X241301959Y-87586244D01*
X241301959Y-87586244D02*
X241444816Y-87538625D01*
X241444816Y-87538625D02*
X241540054Y-87538625D01*
X241540054Y-87538625D02*
X241682911Y-87586244D01*
X241682911Y-87586244D02*
X241730530Y-87633863D01*
X242492435Y-88014815D02*
X242635292Y-88062434D01*
X242635292Y-88062434D02*
X242682911Y-88110053D01*
X242682911Y-88110053D02*
X242730530Y-88205291D01*
X242730530Y-88205291D02*
X242730530Y-88348148D01*
X242730530Y-88348148D02*
X242682911Y-88443386D01*
X242682911Y-88443386D02*
X242635292Y-88491006D01*
X242635292Y-88491006D02*
X242540054Y-88538625D01*
X242540054Y-88538625D02*
X242159102Y-88538625D01*
X242159102Y-88538625D02*
X242159102Y-87538625D01*
X242159102Y-87538625D02*
X242492435Y-87538625D01*
X242492435Y-87538625D02*
X242587673Y-87586244D01*
X242587673Y-87586244D02*
X242635292Y-87633863D01*
X242635292Y-87633863D02*
X242682911Y-87729101D01*
X242682911Y-87729101D02*
X242682911Y-87824339D01*
X242682911Y-87824339D02*
X242635292Y-87919577D01*
X242635292Y-87919577D02*
X242587673Y-87967196D01*
X242587673Y-87967196D02*
X242492435Y-88014815D01*
X242492435Y-88014815D02*
X242159102Y-88014815D01*
X244492435Y-88443386D02*
X244444816Y-88491006D01*
X244444816Y-88491006D02*
X244301959Y-88538625D01*
X244301959Y-88538625D02*
X244206721Y-88538625D01*
X244206721Y-88538625D02*
X244063864Y-88491006D01*
X244063864Y-88491006D02*
X243968626Y-88395767D01*
X243968626Y-88395767D02*
X243921007Y-88300529D01*
X243921007Y-88300529D02*
X243873388Y-88110053D01*
X243873388Y-88110053D02*
X243873388Y-87967196D01*
X243873388Y-87967196D02*
X243921007Y-87776720D01*
X243921007Y-87776720D02*
X243968626Y-87681482D01*
X243968626Y-87681482D02*
X244063864Y-87586244D01*
X244063864Y-87586244D02*
X244206721Y-87538625D01*
X244206721Y-87538625D02*
X244301959Y-87538625D01*
X244301959Y-87538625D02*
X244444816Y-87586244D01*
X244444816Y-87586244D02*
X244492435Y-87633863D01*
X244921007Y-88538625D02*
X244921007Y-87538625D01*
X245349578Y-88538625D02*
X245349578Y-88014815D01*
X245349578Y-88014815D02*
X245301959Y-87919577D01*
X245301959Y-87919577D02*
X245206721Y-87871958D01*
X245206721Y-87871958D02*
X245063864Y-87871958D01*
X245063864Y-87871958D02*
X244968626Y-87919577D01*
X244968626Y-87919577D02*
X244921007Y-87967196D01*
X246254340Y-87871958D02*
X246254340Y-88538625D01*
X245825769Y-87871958D02*
X245825769Y-88395767D01*
X245825769Y-88395767D02*
X245873388Y-88491006D01*
X245873388Y-88491006D02*
X245968626Y-88538625D01*
X245968626Y-88538625D02*
X246111483Y-88538625D01*
X246111483Y-88538625D02*
X246206721Y-88491006D01*
X246206721Y-88491006D02*
X246254340Y-88443386D01*
X246730531Y-87871958D02*
X246730531Y-88538625D01*
X246730531Y-87967196D02*
X246778150Y-87919577D01*
X246778150Y-87919577D02*
X246873388Y-87871958D01*
X246873388Y-87871958D02*
X247016245Y-87871958D01*
X247016245Y-87871958D02*
X247111483Y-87919577D01*
X247111483Y-87919577D02*
X247159102Y-88014815D01*
X247159102Y-88014815D02*
X247159102Y-88538625D01*
X247635293Y-88538625D02*
X247635293Y-87538625D01*
X247730531Y-88157672D02*
X248016245Y-88538625D01*
X248016245Y-87871958D02*
X247635293Y-88252910D01*
X248349579Y-87871958D02*
X248587674Y-88538625D01*
X248825769Y-87871958D02*
X248587674Y-88538625D01*
X248587674Y-88538625D02*
X248492436Y-88776720D01*
X248492436Y-88776720D02*
X248444817Y-88824339D01*
X248444817Y-88824339D02*
X248349579Y-88871958D01*
X229730529Y-90148569D02*
X229730529Y-89148569D01*
X229730529Y-89148569D02*
X230301957Y-90148569D01*
X230301957Y-90148569D02*
X230301957Y-89148569D01*
X230921005Y-90148569D02*
X230825767Y-90100950D01*
X230825767Y-90100950D02*
X230778148Y-90053330D01*
X230778148Y-90053330D02*
X230730529Y-89958092D01*
X230730529Y-89958092D02*
X230730529Y-89672378D01*
X230730529Y-89672378D02*
X230778148Y-89577140D01*
X230778148Y-89577140D02*
X230825767Y-89529521D01*
X230825767Y-89529521D02*
X230921005Y-89481902D01*
X230921005Y-89481902D02*
X231063862Y-89481902D01*
X231063862Y-89481902D02*
X231159100Y-89529521D01*
X231159100Y-89529521D02*
X231206719Y-89577140D01*
X231206719Y-89577140D02*
X231254338Y-89672378D01*
X231254338Y-89672378D02*
X231254338Y-89958092D01*
X231254338Y-89958092D02*
X231206719Y-90053330D01*
X231206719Y-90053330D02*
X231159100Y-90100950D01*
X231159100Y-90100950D02*
X231063862Y-90148569D01*
X231063862Y-90148569D02*
X230921005Y-90148569D01*
X231682910Y-90148569D02*
X231682910Y-89148569D01*
X231682910Y-89148569D02*
X232063862Y-89148569D01*
X232063862Y-89148569D02*
X232159100Y-89196188D01*
X232159100Y-89196188D02*
X232206719Y-89243807D01*
X232206719Y-89243807D02*
X232254338Y-89339045D01*
X232254338Y-89339045D02*
X232254338Y-89481902D01*
X232254338Y-89481902D02*
X232206719Y-89577140D01*
X232206719Y-89577140D02*
X232159100Y-89624759D01*
X232159100Y-89624759D02*
X232063862Y-89672378D01*
X232063862Y-89672378D02*
X231682910Y-89672378D01*
X233111481Y-89481902D02*
X233111481Y-90148569D01*
X232682910Y-89481902D02*
X232682910Y-90005711D01*
X232682910Y-90005711D02*
X232730529Y-90100950D01*
X232730529Y-90100950D02*
X232825767Y-90148569D01*
X232825767Y-90148569D02*
X232968624Y-90148569D01*
X232968624Y-90148569D02*
X233063862Y-90100950D01*
X233063862Y-90100950D02*
X233111481Y-90053330D01*
X233587672Y-89481902D02*
X233587672Y-90148569D01*
X233587672Y-89577140D02*
X233635291Y-89529521D01*
X233635291Y-89529521D02*
X233730529Y-89481902D01*
X233730529Y-89481902D02*
X233873386Y-89481902D01*
X233873386Y-89481902D02*
X233968624Y-89529521D01*
X233968624Y-89529521D02*
X234016243Y-89624759D01*
X234016243Y-89624759D02*
X234016243Y-90148569D01*
X234492434Y-90148569D02*
X234492434Y-89148569D01*
X234968624Y-89481902D02*
X234968624Y-90148569D01*
X234968624Y-89577140D02*
X235016243Y-89529521D01*
X235016243Y-89529521D02*
X235111481Y-89481902D01*
X235111481Y-89481902D02*
X235254338Y-89481902D01*
X235254338Y-89481902D02*
X235349576Y-89529521D01*
X235349576Y-89529521D02*
X235397195Y-89624759D01*
X235397195Y-89624759D02*
X235397195Y-90148569D01*
X236397195Y-90148569D02*
X235825767Y-90148569D01*
X236111481Y-90148569D02*
X236111481Y-89148569D01*
X236111481Y-89148569D02*
X236016243Y-89291426D01*
X236016243Y-89291426D02*
X235921005Y-89386664D01*
X235921005Y-89386664D02*
X235825767Y-89434283D01*
X237016243Y-89148569D02*
X237111481Y-89148569D01*
X237111481Y-89148569D02*
X237206719Y-89196188D01*
X237206719Y-89196188D02*
X237254338Y-89243807D01*
X237254338Y-89243807D02*
X237301957Y-89339045D01*
X237301957Y-89339045D02*
X237349576Y-89529521D01*
X237349576Y-89529521D02*
X237349576Y-89767616D01*
X237349576Y-89767616D02*
X237301957Y-89958092D01*
X237301957Y-89958092D02*
X237254338Y-90053330D01*
X237254338Y-90053330D02*
X237206719Y-90100950D01*
X237206719Y-90100950D02*
X237111481Y-90148569D01*
X237111481Y-90148569D02*
X237016243Y-90148569D01*
X237016243Y-90148569D02*
X236921005Y-90100950D01*
X236921005Y-90100950D02*
X236873386Y-90053330D01*
X236873386Y-90053330D02*
X236825767Y-89958092D01*
X236825767Y-89958092D02*
X236778148Y-89767616D01*
X236778148Y-89767616D02*
X236778148Y-89529521D01*
X236778148Y-89529521D02*
X236825767Y-89339045D01*
X236825767Y-89339045D02*
X236873386Y-89243807D01*
X236873386Y-89243807D02*
X236921005Y-89196188D01*
X236921005Y-89196188D02*
X237016243Y-89148569D01*
X237778148Y-90148569D02*
X237778148Y-89148569D01*
X237778148Y-89148569D02*
X238016243Y-89148569D01*
X238016243Y-89148569D02*
X238159100Y-89196188D01*
X238159100Y-89196188D02*
X238254338Y-89291426D01*
X238254338Y-89291426D02*
X238301957Y-89386664D01*
X238301957Y-89386664D02*
X238349576Y-89577140D01*
X238349576Y-89577140D02*
X238349576Y-89719997D01*
X238349576Y-89719997D02*
X238301957Y-89910473D01*
X238301957Y-89910473D02*
X238254338Y-90005711D01*
X238254338Y-90005711D02*
X238159100Y-90100950D01*
X238159100Y-90100950D02*
X238016243Y-90148569D01*
X238016243Y-90148569D02*
X237778148Y-90148569D01*
X238778148Y-90148569D02*
X238778148Y-89481902D01*
X238778148Y-89148569D02*
X238730529Y-89196188D01*
X238730529Y-89196188D02*
X238778148Y-89243807D01*
X238778148Y-89243807D02*
X238825767Y-89196188D01*
X238825767Y-89196188D02*
X238778148Y-89148569D01*
X238778148Y-89148569D02*
X238778148Y-89243807D01*
X239682909Y-90148569D02*
X239682909Y-89148569D01*
X239682909Y-90100950D02*
X239587671Y-90148569D01*
X239587671Y-90148569D02*
X239397195Y-90148569D01*
X239397195Y-90148569D02*
X239301957Y-90100950D01*
X239301957Y-90100950D02*
X239254338Y-90053330D01*
X239254338Y-90053330D02*
X239206719Y-89958092D01*
X239206719Y-89958092D02*
X239206719Y-89672378D01*
X239206719Y-89672378D02*
X239254338Y-89577140D01*
X239254338Y-89577140D02*
X239301957Y-89529521D01*
X239301957Y-89529521D02*
X239397195Y-89481902D01*
X239397195Y-89481902D02*
X239587671Y-89481902D01*
X239587671Y-89481902D02*
X239682909Y-89529521D01*
X229730529Y-91758513D02*
X229730529Y-90758513D01*
X229730529Y-90758513D02*
X230111481Y-90758513D01*
X230111481Y-90758513D02*
X230206719Y-90806132D01*
X230206719Y-90806132D02*
X230254338Y-90853751D01*
X230254338Y-90853751D02*
X230301957Y-90948989D01*
X230301957Y-90948989D02*
X230301957Y-91091846D01*
X230301957Y-91091846D02*
X230254338Y-91187084D01*
X230254338Y-91187084D02*
X230206719Y-91234703D01*
X230206719Y-91234703D02*
X230111481Y-91282322D01*
X230111481Y-91282322D02*
X229730529Y-91282322D01*
X230730529Y-91758513D02*
X230730529Y-91091846D01*
X230730529Y-91282322D02*
X230778148Y-91187084D01*
X230778148Y-91187084D02*
X230825767Y-91139465D01*
X230825767Y-91139465D02*
X230921005Y-91091846D01*
X230921005Y-91091846D02*
X231016243Y-91091846D01*
X231492434Y-91758513D02*
X231397196Y-91710894D01*
X231397196Y-91710894D02*
X231349577Y-91663274D01*
X231349577Y-91663274D02*
X231301958Y-91568036D01*
X231301958Y-91568036D02*
X231301958Y-91282322D01*
X231301958Y-91282322D02*
X231349577Y-91187084D01*
X231349577Y-91187084D02*
X231397196Y-91139465D01*
X231397196Y-91139465D02*
X231492434Y-91091846D01*
X231492434Y-91091846D02*
X231635291Y-91091846D01*
X231635291Y-91091846D02*
X231730529Y-91139465D01*
X231730529Y-91139465D02*
X231778148Y-91187084D01*
X231778148Y-91187084D02*
X231825767Y-91282322D01*
X231825767Y-91282322D02*
X231825767Y-91568036D01*
X231825767Y-91568036D02*
X231778148Y-91663274D01*
X231778148Y-91663274D02*
X231730529Y-91710894D01*
X231730529Y-91710894D02*
X231635291Y-91758513D01*
X231635291Y-91758513D02*
X231492434Y-91758513D01*
X232111482Y-91091846D02*
X232492434Y-91091846D01*
X232254339Y-90758513D02*
X232254339Y-91615655D01*
X232254339Y-91615655D02*
X232301958Y-91710894D01*
X232301958Y-91710894D02*
X232397196Y-91758513D01*
X232397196Y-91758513D02*
X232492434Y-91758513D01*
X232968625Y-91758513D02*
X232873387Y-91710894D01*
X232873387Y-91710894D02*
X232825768Y-91663274D01*
X232825768Y-91663274D02*
X232778149Y-91568036D01*
X232778149Y-91568036D02*
X232778149Y-91282322D01*
X232778149Y-91282322D02*
X232825768Y-91187084D01*
X232825768Y-91187084D02*
X232873387Y-91139465D01*
X232873387Y-91139465D02*
X232968625Y-91091846D01*
X232968625Y-91091846D02*
X233111482Y-91091846D01*
X233111482Y-91091846D02*
X233206720Y-91139465D01*
X233206720Y-91139465D02*
X233254339Y-91187084D01*
X233254339Y-91187084D02*
X233301958Y-91282322D01*
X233301958Y-91282322D02*
X233301958Y-91568036D01*
X233301958Y-91568036D02*
X233254339Y-91663274D01*
X233254339Y-91663274D02*
X233206720Y-91710894D01*
X233206720Y-91710894D02*
X233111482Y-91758513D01*
X233111482Y-91758513D02*
X232968625Y-91758513D01*
X233587673Y-91091846D02*
X233968625Y-91091846D01*
X233730530Y-90758513D02*
X233730530Y-91615655D01*
X233730530Y-91615655D02*
X233778149Y-91710894D01*
X233778149Y-91710894D02*
X233873387Y-91758513D01*
X233873387Y-91758513D02*
X233968625Y-91758513D01*
X234206721Y-91091846D02*
X234444816Y-91758513D01*
X234682911Y-91091846D02*
X234444816Y-91758513D01*
X234444816Y-91758513D02*
X234349578Y-91996608D01*
X234349578Y-91996608D02*
X234301959Y-92044227D01*
X234301959Y-92044227D02*
X234206721Y-92091846D01*
X235063864Y-91091846D02*
X235063864Y-92091846D01*
X235063864Y-91139465D02*
X235159102Y-91091846D01*
X235159102Y-91091846D02*
X235349578Y-91091846D01*
X235349578Y-91091846D02*
X235444816Y-91139465D01*
X235444816Y-91139465D02*
X235492435Y-91187084D01*
X235492435Y-91187084D02*
X235540054Y-91282322D01*
X235540054Y-91282322D02*
X235540054Y-91568036D01*
X235540054Y-91568036D02*
X235492435Y-91663274D01*
X235492435Y-91663274D02*
X235444816Y-91710894D01*
X235444816Y-91710894D02*
X235349578Y-91758513D01*
X235349578Y-91758513D02*
X235159102Y-91758513D01*
X235159102Y-91758513D02*
X235063864Y-91710894D01*
X236349578Y-91710894D02*
X236254340Y-91758513D01*
X236254340Y-91758513D02*
X236063864Y-91758513D01*
X236063864Y-91758513D02*
X235968626Y-91710894D01*
X235968626Y-91710894D02*
X235921007Y-91615655D01*
X235921007Y-91615655D02*
X235921007Y-91234703D01*
X235921007Y-91234703D02*
X235968626Y-91139465D01*
X235968626Y-91139465D02*
X236063864Y-91091846D01*
X236063864Y-91091846D02*
X236254340Y-91091846D01*
X236254340Y-91091846D02*
X236349578Y-91139465D01*
X236349578Y-91139465D02*
X236397197Y-91234703D01*
X236397197Y-91234703D02*
X236397197Y-91329941D01*
X236397197Y-91329941D02*
X235921007Y-91425179D01*
X237540055Y-90853751D02*
X237587674Y-90806132D01*
X237587674Y-90806132D02*
X237682912Y-90758513D01*
X237682912Y-90758513D02*
X237921007Y-90758513D01*
X237921007Y-90758513D02*
X238016245Y-90806132D01*
X238016245Y-90806132D02*
X238063864Y-90853751D01*
X238063864Y-90853751D02*
X238111483Y-90948989D01*
X238111483Y-90948989D02*
X238111483Y-91044227D01*
X238111483Y-91044227D02*
X238063864Y-91187084D01*
X238063864Y-91187084D02*
X237492436Y-91758513D01*
X237492436Y-91758513D02*
X238111483Y-91758513D01*
X238730531Y-90758513D02*
X238825769Y-90758513D01*
X238825769Y-90758513D02*
X238921007Y-90806132D01*
X238921007Y-90806132D02*
X238968626Y-90853751D01*
X238968626Y-90853751D02*
X239016245Y-90948989D01*
X239016245Y-90948989D02*
X239063864Y-91139465D01*
X239063864Y-91139465D02*
X239063864Y-91377560D01*
X239063864Y-91377560D02*
X239016245Y-91568036D01*
X239016245Y-91568036D02*
X238968626Y-91663274D01*
X238968626Y-91663274D02*
X238921007Y-91710894D01*
X238921007Y-91710894D02*
X238825769Y-91758513D01*
X238825769Y-91758513D02*
X238730531Y-91758513D01*
X238730531Y-91758513D02*
X238635293Y-91710894D01*
X238635293Y-91710894D02*
X238587674Y-91663274D01*
X238587674Y-91663274D02*
X238540055Y-91568036D01*
X238540055Y-91568036D02*
X238492436Y-91377560D01*
X238492436Y-91377560D02*
X238492436Y-91139465D01*
X238492436Y-91139465D02*
X238540055Y-90948989D01*
X238540055Y-90948989D02*
X238587674Y-90853751D01*
X238587674Y-90853751D02*
X238635293Y-90806132D01*
X238635293Y-90806132D02*
X238730531Y-90758513D01*
X239444817Y-90853751D02*
X239492436Y-90806132D01*
X239492436Y-90806132D02*
X239587674Y-90758513D01*
X239587674Y-90758513D02*
X239825769Y-90758513D01*
X239825769Y-90758513D02*
X239921007Y-90806132D01*
X239921007Y-90806132D02*
X239968626Y-90853751D01*
X239968626Y-90853751D02*
X240016245Y-90948989D01*
X240016245Y-90948989D02*
X240016245Y-91044227D01*
X240016245Y-91044227D02*
X239968626Y-91187084D01*
X239968626Y-91187084D02*
X239397198Y-91758513D01*
X239397198Y-91758513D02*
X240016245Y-91758513D01*
X240349579Y-90758513D02*
X240968626Y-90758513D01*
X240968626Y-90758513D02*
X240635293Y-91139465D01*
X240635293Y-91139465D02*
X240778150Y-91139465D01*
X240778150Y-91139465D02*
X240873388Y-91187084D01*
X240873388Y-91187084D02*
X240921007Y-91234703D01*
X240921007Y-91234703D02*
X240968626Y-91329941D01*
X240968626Y-91329941D02*
X240968626Y-91568036D01*
X240968626Y-91568036D02*
X240921007Y-91663274D01*
X240921007Y-91663274D02*
X240873388Y-91710894D01*
X240873388Y-91710894D02*
X240778150Y-91758513D01*
X240778150Y-91758513D02*
X240492436Y-91758513D01*
X240492436Y-91758513D02*
X240397198Y-91710894D01*
X240397198Y-91710894D02*
X240349579Y-91663274D01*
X241397198Y-91377560D02*
X242159103Y-91377560D01*
X242825769Y-90758513D02*
X242921007Y-90758513D01*
X242921007Y-90758513D02*
X243016245Y-90806132D01*
X243016245Y-90806132D02*
X243063864Y-90853751D01*
X243063864Y-90853751D02*
X243111483Y-90948989D01*
X243111483Y-90948989D02*
X243159102Y-91139465D01*
X243159102Y-91139465D02*
X243159102Y-91377560D01*
X243159102Y-91377560D02*
X243111483Y-91568036D01*
X243111483Y-91568036D02*
X243063864Y-91663274D01*
X243063864Y-91663274D02*
X243016245Y-91710894D01*
X243016245Y-91710894D02*
X242921007Y-91758513D01*
X242921007Y-91758513D02*
X242825769Y-91758513D01*
X242825769Y-91758513D02*
X242730531Y-91710894D01*
X242730531Y-91710894D02*
X242682912Y-91663274D01*
X242682912Y-91663274D02*
X242635293Y-91568036D01*
X242635293Y-91568036D02*
X242587674Y-91377560D01*
X242587674Y-91377560D02*
X242587674Y-91139465D01*
X242587674Y-91139465D02*
X242635293Y-90948989D01*
X242635293Y-90948989D02*
X242682912Y-90853751D01*
X242682912Y-90853751D02*
X242730531Y-90806132D01*
X242730531Y-90806132D02*
X242825769Y-90758513D01*
X244016245Y-91091846D02*
X244016245Y-91758513D01*
X243778150Y-90710894D02*
X243540055Y-91425179D01*
X243540055Y-91425179D02*
X244159102Y-91425179D01*
X280669048Y-27458152D02*
X281430953Y-27743866D01*
X281430953Y-27743866D02*
X280669048Y-28029580D01*
X275466513Y-31857047D02*
X274990323Y-31857047D01*
X274990323Y-31857047D02*
X274990323Y-30857047D01*
X275799847Y-31333237D02*
X276133180Y-31333237D01*
X276276037Y-31857047D02*
X275799847Y-31857047D01*
X275799847Y-31857047D02*
X275799847Y-30857047D01*
X275799847Y-30857047D02*
X276276037Y-30857047D01*
X276704609Y-31857047D02*
X276704609Y-30857047D01*
X276704609Y-30857047D02*
X276942704Y-30857047D01*
X276942704Y-30857047D02*
X277085561Y-30904666D01*
X277085561Y-30904666D02*
X277180799Y-30999904D01*
X277180799Y-30999904D02*
X277228418Y-31095142D01*
X277228418Y-31095142D02*
X277276037Y-31285618D01*
X277276037Y-31285618D02*
X277276037Y-31428475D01*
X277276037Y-31428475D02*
X277228418Y-31618951D01*
X277228418Y-31618951D02*
X277180799Y-31714189D01*
X277180799Y-31714189D02*
X277085561Y-31809428D01*
X277085561Y-31809428D02*
X276942704Y-31857047D01*
X276942704Y-31857047D02*
X276704609Y-31857047D01*
X277656990Y-31809428D02*
X277752228Y-31857047D01*
X277752228Y-31857047D02*
X277942704Y-31857047D01*
X277942704Y-31857047D02*
X278037942Y-31809428D01*
X278037942Y-31809428D02*
X278085561Y-31714189D01*
X278085561Y-31714189D02*
X278085561Y-31666570D01*
X278085561Y-31666570D02*
X278037942Y-31571332D01*
X278037942Y-31571332D02*
X277942704Y-31523713D01*
X277942704Y-31523713D02*
X277799847Y-31523713D01*
X277799847Y-31523713D02*
X277704609Y-31476094D01*
X277704609Y-31476094D02*
X277656990Y-31380856D01*
X277656990Y-31380856D02*
X277656990Y-31333237D01*
X277656990Y-31333237D02*
X277704609Y-31237999D01*
X277704609Y-31237999D02*
X277799847Y-31190380D01*
X277799847Y-31190380D02*
X277942704Y-31190380D01*
X277942704Y-31190380D02*
X278037942Y-31237999D01*
X279418895Y-31857047D02*
X279323657Y-31809428D01*
X279323657Y-31809428D02*
X279276038Y-31761808D01*
X279276038Y-31761808D02*
X279228419Y-31666570D01*
X279228419Y-31666570D02*
X279228419Y-31380856D01*
X279228419Y-31380856D02*
X279276038Y-31285618D01*
X279276038Y-31285618D02*
X279323657Y-31237999D01*
X279323657Y-31237999D02*
X279418895Y-31190380D01*
X279418895Y-31190380D02*
X279561752Y-31190380D01*
X279561752Y-31190380D02*
X279656990Y-31237999D01*
X279656990Y-31237999D02*
X279704609Y-31285618D01*
X279704609Y-31285618D02*
X279752228Y-31380856D01*
X279752228Y-31380856D02*
X279752228Y-31666570D01*
X279752228Y-31666570D02*
X279704609Y-31761808D01*
X279704609Y-31761808D02*
X279656990Y-31809428D01*
X279656990Y-31809428D02*
X279561752Y-31857047D01*
X279561752Y-31857047D02*
X279418895Y-31857047D01*
X280180800Y-31190380D02*
X280180800Y-31857047D01*
X280180800Y-31285618D02*
X280228419Y-31237999D01*
X280228419Y-31237999D02*
X280323657Y-31190380D01*
X280323657Y-31190380D02*
X280466514Y-31190380D01*
X280466514Y-31190380D02*
X280561752Y-31237999D01*
X280561752Y-31237999D02*
X280609371Y-31333237D01*
X280609371Y-31333237D02*
X280609371Y-31857047D01*
X274990324Y-32800324D02*
X275371276Y-32800324D01*
X275133181Y-32466991D02*
X275133181Y-33324133D01*
X275133181Y-33324133D02*
X275180800Y-33419372D01*
X275180800Y-33419372D02*
X275276038Y-33466991D01*
X275276038Y-33466991D02*
X275371276Y-33466991D01*
X275704610Y-33466991D02*
X275704610Y-32466991D01*
X276133181Y-33466991D02*
X276133181Y-32943181D01*
X276133181Y-32943181D02*
X276085562Y-32847943D01*
X276085562Y-32847943D02*
X275990324Y-32800324D01*
X275990324Y-32800324D02*
X275847467Y-32800324D01*
X275847467Y-32800324D02*
X275752229Y-32847943D01*
X275752229Y-32847943D02*
X275704610Y-32895562D01*
X276609372Y-33466991D02*
X276609372Y-32800324D01*
X276609372Y-32466991D02*
X276561753Y-32514610D01*
X276561753Y-32514610D02*
X276609372Y-32562229D01*
X276609372Y-32562229D02*
X276656991Y-32514610D01*
X276656991Y-32514610D02*
X276609372Y-32466991D01*
X276609372Y-32466991D02*
X276609372Y-32562229D01*
X277037943Y-33419372D02*
X277133181Y-33466991D01*
X277133181Y-33466991D02*
X277323657Y-33466991D01*
X277323657Y-33466991D02*
X277418895Y-33419372D01*
X277418895Y-33419372D02*
X277466514Y-33324133D01*
X277466514Y-33324133D02*
X277466514Y-33276514D01*
X277466514Y-33276514D02*
X277418895Y-33181276D01*
X277418895Y-33181276D02*
X277323657Y-33133657D01*
X277323657Y-33133657D02*
X277180800Y-33133657D01*
X277180800Y-33133657D02*
X277085562Y-33086038D01*
X277085562Y-33086038D02*
X277037943Y-32990800D01*
X277037943Y-32990800D02*
X277037943Y-32943181D01*
X277037943Y-32943181D02*
X277085562Y-32847943D01*
X277085562Y-32847943D02*
X277180800Y-32800324D01*
X277180800Y-32800324D02*
X277323657Y-32800324D01*
X277323657Y-32800324D02*
X277418895Y-32847943D01*
X278609372Y-33419372D02*
X278704610Y-33466991D01*
X278704610Y-33466991D02*
X278895086Y-33466991D01*
X278895086Y-33466991D02*
X278990324Y-33419372D01*
X278990324Y-33419372D02*
X279037943Y-33324133D01*
X279037943Y-33324133D02*
X279037943Y-33276514D01*
X279037943Y-33276514D02*
X278990324Y-33181276D01*
X278990324Y-33181276D02*
X278895086Y-33133657D01*
X278895086Y-33133657D02*
X278752229Y-33133657D01*
X278752229Y-33133657D02*
X278656991Y-33086038D01*
X278656991Y-33086038D02*
X278609372Y-32990800D01*
X278609372Y-32990800D02*
X278609372Y-32943181D01*
X278609372Y-32943181D02*
X278656991Y-32847943D01*
X278656991Y-32847943D02*
X278752229Y-32800324D01*
X278752229Y-32800324D02*
X278895086Y-32800324D01*
X278895086Y-32800324D02*
X278990324Y-32847943D01*
X279466515Y-33466991D02*
X279466515Y-32800324D01*
X279466515Y-32466991D02*
X279418896Y-32514610D01*
X279418896Y-32514610D02*
X279466515Y-32562229D01*
X279466515Y-32562229D02*
X279514134Y-32514610D01*
X279514134Y-32514610D02*
X279466515Y-32466991D01*
X279466515Y-32466991D02*
X279466515Y-32562229D01*
X280371276Y-33466991D02*
X280371276Y-32466991D01*
X280371276Y-33419372D02*
X280276038Y-33466991D01*
X280276038Y-33466991D02*
X280085562Y-33466991D01*
X280085562Y-33466991D02*
X279990324Y-33419372D01*
X279990324Y-33419372D02*
X279942705Y-33371752D01*
X279942705Y-33371752D02*
X279895086Y-33276514D01*
X279895086Y-33276514D02*
X279895086Y-32990800D01*
X279895086Y-32990800D02*
X279942705Y-32895562D01*
X279942705Y-32895562D02*
X279990324Y-32847943D01*
X279990324Y-32847943D02*
X280085562Y-32800324D01*
X280085562Y-32800324D02*
X280276038Y-32800324D01*
X280276038Y-32800324D02*
X280371276Y-32847943D01*
X281228419Y-33419372D02*
X281133181Y-33466991D01*
X281133181Y-33466991D02*
X280942705Y-33466991D01*
X280942705Y-33466991D02*
X280847467Y-33419372D01*
X280847467Y-33419372D02*
X280799848Y-33324133D01*
X280799848Y-33324133D02*
X280799848Y-32943181D01*
X280799848Y-32943181D02*
X280847467Y-32847943D01*
X280847467Y-32847943D02*
X280942705Y-32800324D01*
X280942705Y-32800324D02*
X281133181Y-32800324D01*
X281133181Y-32800324D02*
X281228419Y-32847943D01*
X281228419Y-32847943D02*
X281276038Y-32943181D01*
X281276038Y-32943181D02*
X281276038Y-33038419D01*
X281276038Y-33038419D02*
X280799848Y-33133657D01*
X279449405Y-30022319D02*
X279449405Y-29022319D01*
X279449405Y-29022319D02*
X279687500Y-29022319D01*
X279687500Y-29022319D02*
X279830357Y-29069938D01*
X279830357Y-29069938D02*
X279925595Y-29165176D01*
X279925595Y-29165176D02*
X279973214Y-29260414D01*
X279973214Y-29260414D02*
X280020833Y-29450890D01*
X280020833Y-29450890D02*
X280020833Y-29593747D01*
X280020833Y-29593747D02*
X279973214Y-29784223D01*
X279973214Y-29784223D02*
X279925595Y-29879461D01*
X279925595Y-29879461D02*
X279830357Y-29974700D01*
X279830357Y-29974700D02*
X279687500Y-30022319D01*
X279687500Y-30022319D02*
X279449405Y-30022319D01*
X280401786Y-29117557D02*
X280449405Y-29069938D01*
X280449405Y-29069938D02*
X280544643Y-29022319D01*
X280544643Y-29022319D02*
X280782738Y-29022319D01*
X280782738Y-29022319D02*
X280877976Y-29069938D01*
X280877976Y-29069938D02*
X280925595Y-29117557D01*
X280925595Y-29117557D02*
X280973214Y-29212795D01*
X280973214Y-29212795D02*
X280973214Y-29308033D01*
X280973214Y-29308033D02*
X280925595Y-29450890D01*
X280925595Y-29450890D02*
X280354167Y-30022319D01*
X280354167Y-30022319D02*
X280973214Y-30022319D01*
X279449405Y-39524819D02*
X279449405Y-38524819D01*
X279449405Y-38524819D02*
X279687500Y-38524819D01*
X279687500Y-38524819D02*
X279830357Y-38572438D01*
X279830357Y-38572438D02*
X279925595Y-38667676D01*
X279925595Y-38667676D02*
X279973214Y-38762914D01*
X279973214Y-38762914D02*
X280020833Y-38953390D01*
X280020833Y-38953390D02*
X280020833Y-39096247D01*
X280020833Y-39096247D02*
X279973214Y-39286723D01*
X279973214Y-39286723D02*
X279925595Y-39381961D01*
X279925595Y-39381961D02*
X279830357Y-39477200D01*
X279830357Y-39477200D02*
X279687500Y-39524819D01*
X279687500Y-39524819D02*
X279449405Y-39524819D01*
X280354167Y-38524819D02*
X280973214Y-38524819D01*
X280973214Y-38524819D02*
X280639881Y-38905771D01*
X280639881Y-38905771D02*
X280782738Y-38905771D01*
X280782738Y-38905771D02*
X280877976Y-38953390D01*
X280877976Y-38953390D02*
X280925595Y-39001009D01*
X280925595Y-39001009D02*
X280973214Y-39096247D01*
X280973214Y-39096247D02*
X280973214Y-39334342D01*
X280973214Y-39334342D02*
X280925595Y-39429580D01*
X280925595Y-39429580D02*
X280877976Y-39477200D01*
X280877976Y-39477200D02*
X280782738Y-39524819D01*
X280782738Y-39524819D02*
X280497024Y-39524819D01*
X280497024Y-39524819D02*
X280401786Y-39477200D01*
X280401786Y-39477200D02*
X280354167Y-39429580D01*
X279449405Y-20524819D02*
X279449405Y-19524819D01*
X279449405Y-19524819D02*
X279687500Y-19524819D01*
X279687500Y-19524819D02*
X279830357Y-19572438D01*
X279830357Y-19572438D02*
X279925595Y-19667676D01*
X279925595Y-19667676D02*
X279973214Y-19762914D01*
X279973214Y-19762914D02*
X280020833Y-19953390D01*
X280020833Y-19953390D02*
X280020833Y-20096247D01*
X280020833Y-20096247D02*
X279973214Y-20286723D01*
X279973214Y-20286723D02*
X279925595Y-20381961D01*
X279925595Y-20381961D02*
X279830357Y-20477200D01*
X279830357Y-20477200D02*
X279687500Y-20524819D01*
X279687500Y-20524819D02*
X279449405Y-20524819D01*
X280973214Y-20524819D02*
X280401786Y-20524819D01*
X280687500Y-20524819D02*
X280687500Y-19524819D01*
X280687500Y-19524819D02*
X280592262Y-19667676D01*
X280592262Y-19667676D02*
X280497024Y-19762914D01*
X280497024Y-19762914D02*
X280401786Y-19810533D01*
D11*
G04 #@! TO.C,D2*
X278587500Y-28882500D02*
X282647500Y-28882500D01*
X282647500Y-26612500D02*
X278587500Y-26612500D01*
X282647500Y-28882500D02*
X282647500Y-26612500D01*
G04 #@! TO.C,D3*
X278587500Y-38385000D02*
X282647500Y-38385000D01*
X282647500Y-36115000D02*
X278587500Y-36115000D01*
X282647500Y-38385000D02*
X282647500Y-36115000D01*
G04 #@! TO.C,RSW100*
X19300000Y-19456250D02*
X23400000Y-19456250D01*
X19300000Y-21856250D02*
X19300000Y-19456250D01*
X19300000Y-26656250D02*
X19300000Y-24056250D01*
X19300000Y-31256250D02*
X19300000Y-28856250D01*
X23400000Y-31256250D02*
X19300000Y-31256250D01*
X25400000Y-25856250D02*
X25400000Y-24856250D01*
X25900000Y-25356250D02*
X24900000Y-25356250D01*
X27400000Y-19456250D02*
X31500000Y-19456250D01*
X27400000Y-31256250D02*
X31500000Y-31256250D01*
X31500000Y-31256250D02*
X31500000Y-19456250D01*
X32600000Y-29456250D02*
X32900000Y-29156250D01*
X32900000Y-29156250D02*
X33200000Y-29456250D01*
X33200000Y-29456250D02*
X32600000Y-29456250D01*
X28400000Y-25356250D02*
G75*
G02*
X22400000Y-25356250I-3000000J0D01*
G01*
X22400000Y-25356250D02*
G75*
G02*
X28400000Y-25356250I3000000J0D01*
G01*
G04 #@! TO.C,RSW181*
X347912500Y-19500000D02*
X352012500Y-19500000D01*
X347912500Y-21900000D02*
X347912500Y-19500000D01*
X347912500Y-26700000D02*
X347912500Y-24100000D01*
X347912500Y-31300000D02*
X347912500Y-28900000D01*
X352012500Y-31300000D02*
X347912500Y-31300000D01*
X354012500Y-25900000D02*
X354012500Y-24900000D01*
X354512500Y-25400000D02*
X353512500Y-25400000D01*
X356012500Y-19500000D02*
X360112500Y-19500000D01*
X356012500Y-31300000D02*
X360112500Y-31300000D01*
X360112500Y-31300000D02*
X360112500Y-19500000D01*
X361212500Y-29500000D02*
X361512500Y-29200000D01*
X361512500Y-29200000D02*
X361812500Y-29500000D01*
X361812500Y-29500000D02*
X361212500Y-29500000D01*
X357012500Y-25400000D02*
G75*
G02*
X351012500Y-25400000I-3000000J0D01*
G01*
X351012500Y-25400000D02*
G75*
G02*
X357012500Y-25400000I3000000J0D01*
G01*
G04 #@! TO.C,D1*
X278587500Y-19385000D02*
X282647500Y-19385000D01*
X282647500Y-17115000D02*
X278587500Y-17115000D01*
X282647500Y-19385000D02*
X282647500Y-17115000D01*
G04 #@! TD*
%LPC*%
D12*
G04 #@! TO.C,U2*
X286500000Y-13840000D03*
X286500000Y-16380000D03*
D13*
X286500000Y-18920000D03*
X286500000Y-21460000D03*
D12*
X286500000Y-24000000D03*
X286500000Y-26540000D03*
X286500000Y-29080000D03*
X286500000Y-31620000D03*
X286500000Y-34160000D03*
X286500000Y-36700000D03*
X286500000Y-39240000D03*
X286500000Y-41780000D03*
X271260000Y-13840000D03*
D13*
X271260000Y-16380000D03*
D12*
X271260000Y-18920000D03*
X271260000Y-21460000D03*
X271260000Y-24000000D03*
X271260000Y-26540000D03*
X271260000Y-29080000D03*
X271260000Y-31620000D03*
X271260000Y-34160000D03*
X271260000Y-36700000D03*
X271260000Y-39240000D03*
X271260000Y-41780000D03*
X283960000Y-41780000D03*
X281420000Y-41780000D03*
X278880000Y-41780000D03*
X276340000Y-41780000D03*
X273800000Y-41780000D03*
G04 #@! TD*
D14*
G04 #@! TO.C,D2*
X281675000Y-27747500D03*
X278700000Y-27747500D03*
G04 #@! TD*
G04 #@! TO.C,D3*
X281675000Y-37250000D03*
X278700000Y-37250000D03*
G04 #@! TD*
D15*
G04 #@! TO.C,MX101*
X39370000Y-25400000D03*
D16*
X44450000Y-25400000D03*
D15*
X49530000Y-25400000D03*
G04 #@! TD*
G04 #@! TO.C,MX110*
X58420000Y-25400000D03*
D16*
X63500000Y-25400000D03*
D15*
X68580000Y-25400000D03*
G04 #@! TD*
G04 #@! TO.C,MX111*
X77470000Y-25400000D03*
D16*
X82550000Y-25400000D03*
D15*
X87630000Y-25400000D03*
G04 #@! TD*
G04 #@! TO.C,MX120*
X96520000Y-25400000D03*
D16*
X101600000Y-25400000D03*
D15*
X106680000Y-25400000D03*
G04 #@! TD*
G04 #@! TO.C,MX121*
X115570000Y-25400000D03*
D16*
X120650000Y-25400000D03*
D15*
X125730000Y-25400000D03*
G04 #@! TD*
G04 #@! TO.C,MX130*
X134620000Y-25400000D03*
D16*
X139700000Y-25400000D03*
D15*
X144780000Y-25400000D03*
G04 #@! TD*
G04 #@! TO.C,MX131*
X153670000Y-25400000D03*
D16*
X158750000Y-25400000D03*
D15*
X163830000Y-25400000D03*
G04 #@! TD*
G04 #@! TO.C,MX140*
X172720000Y-25400000D03*
D16*
X177800000Y-25400000D03*
D15*
X182880000Y-25400000D03*
G04 #@! TD*
G04 #@! TO.C,MX141*
X191770000Y-25400000D03*
D16*
X196850000Y-25400000D03*
D15*
X201930000Y-25400000D03*
G04 #@! TD*
G04 #@! TO.C,MX150*
X210820000Y-25400000D03*
D16*
X215900000Y-25400000D03*
D15*
X220980000Y-25400000D03*
G04 #@! TD*
G04 #@! TO.C,MX151*
X229870000Y-25400000D03*
D16*
X234950000Y-25400000D03*
D15*
X240030000Y-25400000D03*
G04 #@! TD*
G04 #@! TO.C,MX170*
X291782500Y-25400000D03*
D16*
X296862500Y-25400000D03*
D15*
X301942500Y-25400000D03*
G04 #@! TD*
G04 #@! TO.C,MX171*
X310832500Y-25400000D03*
D16*
X315912500Y-25400000D03*
D15*
X320992500Y-25400000D03*
G04 #@! TD*
G04 #@! TO.C,MX180*
X329882500Y-25400000D03*
D16*
X334962500Y-25400000D03*
D15*
X340042500Y-25400000D03*
G04 #@! TD*
G04 #@! TO.C,MX181*
X348932500Y-25400000D03*
D16*
X354012500Y-25400000D03*
D15*
X359092500Y-25400000D03*
G04 #@! TD*
G04 #@! TO.C,MX202*
X22701250Y-44450000D03*
D16*
X27781250Y-44450000D03*
D15*
X32861250Y-44450000D03*
G04 #@! TD*
G04 #@! TO.C,MX203*
X44132500Y-44450000D03*
D16*
X49212500Y-44450000D03*
D15*
X54292500Y-44450000D03*
G04 #@! TD*
G04 #@! TO.C,MX212*
X63182500Y-44450000D03*
D16*
X68262500Y-44450000D03*
D15*
X73342500Y-44450000D03*
G04 #@! TD*
G04 #@! TO.C,MX213*
X82232500Y-44450000D03*
D16*
X87312500Y-44450000D03*
D15*
X92392500Y-44450000D03*
G04 #@! TD*
G04 #@! TO.C,MX222*
X101282500Y-44450000D03*
D16*
X106362500Y-44450000D03*
D15*
X111442500Y-44450000D03*
G04 #@! TD*
G04 #@! TO.C,MX223*
X120332500Y-44450000D03*
D16*
X125412500Y-44450000D03*
D15*
X130492500Y-44450000D03*
G04 #@! TD*
G04 #@! TO.C,MX232*
X139382500Y-44450000D03*
D16*
X144462500Y-44450000D03*
D15*
X149542500Y-44450000D03*
G04 #@! TD*
G04 #@! TO.C,MX233*
X158432500Y-44450000D03*
D16*
X163512500Y-44450000D03*
D15*
X168592500Y-44450000D03*
G04 #@! TD*
G04 #@! TO.C,MX242*
X177482500Y-44450000D03*
D16*
X182562500Y-44450000D03*
D15*
X187642500Y-44450000D03*
G04 #@! TD*
G04 #@! TO.C,MX243*
X196532500Y-44450000D03*
D16*
X201612500Y-44450000D03*
D15*
X206692500Y-44450000D03*
G04 #@! TD*
G04 #@! TO.C,MX252*
X215582500Y-44450000D03*
D16*
X220662500Y-44450000D03*
D15*
X225742500Y-44450000D03*
G04 #@! TD*
G04 #@! TO.C,MX253*
X234632500Y-44450000D03*
D16*
X239712500Y-44450000D03*
D15*
X244792500Y-44450000D03*
G04 #@! TD*
G04 #@! TO.C,MX262*
X261143750Y-40005000D03*
D16*
X261143750Y-34925000D03*
D15*
X261143750Y-29845000D03*
G04 #@! TD*
G04 #@! TO.C,MX272*
X291782500Y-44450000D03*
D16*
X296862500Y-44450000D03*
D15*
X301942500Y-44450000D03*
G04 #@! TD*
G04 #@! TO.C,MX273*
X310832500Y-44450000D03*
D16*
X315912500Y-44450000D03*
D15*
X320992500Y-44450000D03*
G04 #@! TD*
G04 #@! TO.C,MX282*
X329882500Y-44450000D03*
D16*
X334962500Y-44450000D03*
D15*
X340042500Y-44450000D03*
G04 #@! TD*
G04 #@! TO.C,MX283*
X348932500Y-44450000D03*
D16*
X354012500Y-44450000D03*
D15*
X359092500Y-44450000D03*
G04 #@! TD*
G04 #@! TO.C,MX304*
X27463750Y-63500000D03*
D16*
X32543750Y-63500000D03*
D15*
X37623750Y-63500000D03*
G04 #@! TD*
G04 #@! TO.C,MX305*
X53657500Y-63500000D03*
D16*
X58737500Y-63500000D03*
D15*
X63817500Y-63500000D03*
G04 #@! TD*
G04 #@! TO.C,MX314*
X72707500Y-63500000D03*
D16*
X77787500Y-63500000D03*
D15*
X82867500Y-63500000D03*
G04 #@! TD*
G04 #@! TO.C,MX315*
X91757500Y-63500000D03*
D16*
X96837500Y-63500000D03*
D15*
X101917500Y-63500000D03*
G04 #@! TD*
G04 #@! TO.C,MX324*
X110807500Y-63500000D03*
D16*
X115887500Y-63500000D03*
D15*
X120967500Y-63500000D03*
G04 #@! TD*
G04 #@! TO.C,MX325*
X129857500Y-63500000D03*
D16*
X134937500Y-63500000D03*
D15*
X140017500Y-63500000D03*
G04 #@! TD*
G04 #@! TO.C,MX334*
X148907500Y-63500000D03*
D16*
X153987500Y-63500000D03*
D15*
X159067500Y-63500000D03*
G04 #@! TD*
G04 #@! TO.C,MX335*
X167957500Y-63500000D03*
D16*
X173037500Y-63500000D03*
D15*
X178117500Y-63500000D03*
G04 #@! TD*
G04 #@! TO.C,MX344*
X187007500Y-63500000D03*
D16*
X192087500Y-63500000D03*
D15*
X197167500Y-63500000D03*
G04 #@! TD*
G04 #@! TO.C,MX345*
X206057500Y-63500000D03*
D16*
X211137500Y-63500000D03*
D15*
X216217500Y-63500000D03*
G04 #@! TD*
G04 #@! TO.C,MX354*
X225107500Y-63500000D03*
D16*
X230187500Y-63500000D03*
D15*
X235267500Y-63500000D03*
G04 #@! TD*
G04 #@! TO.C,MX355*
X246538750Y-63500000D03*
D16*
X251618750Y-63500000D03*
D15*
X256698750Y-63500000D03*
G04 #@! TD*
G04 #@! TO.C,MX364*
X270351250Y-65881250D03*
D16*
X275431250Y-65881250D03*
D15*
X280511250Y-65881250D03*
G04 #@! TD*
G04 #@! TO.C,MX374*
X291782500Y-63500000D03*
D16*
X296862500Y-63500000D03*
D15*
X301942500Y-63500000D03*
G04 #@! TD*
G04 #@! TO.C,MX375*
X310832500Y-63500000D03*
D16*
X315912500Y-63500000D03*
D15*
X320992500Y-63500000D03*
G04 #@! TD*
G04 #@! TO.C,MX384*
X329882500Y-63500000D03*
D16*
X334962500Y-63500000D03*
D15*
X340042500Y-63500000D03*
G04 #@! TD*
G04 #@! TO.C,MX385*
X348932500Y-63500000D03*
D16*
X354012500Y-63500000D03*
D15*
X359092500Y-63500000D03*
G04 #@! TD*
G04 #@! TO.C,MX406*
X22701250Y-82550000D03*
D16*
X27781250Y-82550000D03*
D15*
X32861250Y-82550000D03*
G04 #@! TD*
G04 #@! TO.C,MX416*
X67945000Y-82550000D03*
D16*
X73025000Y-82550000D03*
D15*
X78105000Y-82550000D03*
G04 #@! TD*
D16*
G04 #@! TO.C,MX417*
X96837500Y-74295000D03*
D17*
X96837500Y-89535000D03*
D15*
X103663750Y-82550000D03*
D16*
X108743750Y-82550000D03*
D15*
X113823750Y-82550000D03*
D16*
X120650000Y-74295000D03*
D17*
X120650000Y-89535000D03*
G04 #@! TD*
D16*
G04 #@! TO.C,MX417.700*
X73025000Y-74295000D03*
D17*
X73025000Y-89535000D03*
D15*
X125095000Y-82550000D03*
D16*
X130175000Y-82550000D03*
D15*
X135255000Y-82550000D03*
D16*
X187325000Y-74295000D03*
D17*
X187325000Y-89535000D03*
G04 #@! TD*
D16*
G04 #@! TO.C,MX437*
X144462500Y-74295000D03*
D17*
X144462500Y-89535000D03*
D15*
X151288750Y-82550000D03*
D16*
X156368750Y-82550000D03*
D15*
X161448750Y-82550000D03*
D16*
X168275000Y-74295000D03*
D17*
X168275000Y-89535000D03*
G04 #@! TD*
D15*
G04 #@! TO.C,MX446*
X182245000Y-82550000D03*
D16*
X187325000Y-82550000D03*
D15*
X192405000Y-82550000D03*
G04 #@! TD*
G04 #@! TO.C,MX447*
X203676250Y-82550000D03*
D16*
X208756250Y-82550000D03*
D15*
X213836250Y-82550000D03*
G04 #@! TD*
G04 #@! TO.C,MX456*
X227488750Y-82550000D03*
D16*
X232568750Y-82550000D03*
D15*
X237648750Y-82550000D03*
G04 #@! TD*
G04 #@! TO.C,MX457*
X251301250Y-84931250D03*
D16*
X256381250Y-84931250D03*
D15*
X261461250Y-84931250D03*
G04 #@! TD*
G04 #@! TO.C,MX467*
X270351250Y-84931250D03*
D16*
X275431250Y-84931250D03*
D15*
X280511250Y-84931250D03*
G04 #@! TD*
G04 #@! TO.C,MX476*
X289401250Y-84931250D03*
D16*
X294481250Y-84931250D03*
D15*
X299561250Y-84931250D03*
G04 #@! TD*
G04 #@! TO.C,MX477*
X310832500Y-82550000D03*
D16*
X315912500Y-82550000D03*
D15*
X320992500Y-82550000D03*
G04 #@! TD*
D16*
G04 #@! TO.C,MX477.200*
X313416950Y-74269600D03*
D17*
X313416950Y-89509600D03*
D15*
X320243200Y-82524600D03*
D16*
X325323200Y-82524600D03*
D15*
X330403200Y-82524600D03*
D16*
X337229450Y-74269600D03*
D17*
X337229450Y-89509600D03*
G04 #@! TD*
D15*
G04 #@! TO.C,MX486*
X329882500Y-82550000D03*
D16*
X334962500Y-82550000D03*
D15*
X340042500Y-82550000D03*
G04 #@! TD*
G04 #@! TO.C,MX487*
X348932500Y-82550000D03*
D16*
X354012500Y-82550000D03*
D15*
X359092500Y-82550000D03*
G04 #@! TD*
D17*
G04 #@! TO.C,MX487.200*
X360997500Y-61118750D03*
D16*
X345757500Y-61118750D03*
D15*
X354012500Y-67945000D03*
D16*
X354012500Y-73025000D03*
D15*
X354012500Y-78105000D03*
D17*
X360997500Y-84931250D03*
D16*
X345757500Y-84931250D03*
G04 #@! TD*
D18*
G04 #@! TO.C,RSW100*
X32900000Y-27856250D03*
D19*
X32900000Y-22856250D03*
X32900000Y-25356250D03*
X18400000Y-22856250D03*
X18400000Y-27856250D03*
G04 #@! TD*
D18*
G04 #@! TO.C,RSW181*
X361512500Y-27900000D03*
D19*
X361512500Y-22900000D03*
X361512500Y-25400000D03*
X347012500Y-22900000D03*
X347012500Y-27900000D03*
G04 #@! TD*
D15*
G04 #@! TO.C,MX100*
X20320000Y-25400000D03*
D16*
X25400000Y-25400000D03*
D15*
X30480000Y-25400000D03*
G04 #@! TD*
D14*
G04 #@! TO.C,D1*
X281675000Y-18250000D03*
X278700000Y-18250000D03*
G04 #@! TD*
D15*
G04 #@! TO.C,MX407*
X46513750Y-82550000D03*
D16*
X51593750Y-82550000D03*
D15*
X56673750Y-82550000D03*
G04 #@! TD*
%LPD*%
M02*
